
<svg xmlns="http://www.w3.org/2000/svg" width="120" height="40" viewBox="0 0 120 40" fill="none">
  <path d="M20 8L30 16V32H24V20H16V32H10V16L20 8Z" fill="#4F46E5"/>
  <path d="M40 12H46V32H40V12Z" fill="#4F46E5"/>
  <path d="M50 12H56V20C56 22.2 57.8 24 60 24C62.2 24 64 22.2 64 20V12H70V20C70 25.5 65.5 30 60 30C54.5 30 50 25.5 50 20V12Z" fill="#4F46E5"/>
  <path d="M76 12H90V18H82V32H76V12Z" fill="#4F46E5"/>
  <path d="M94 12H108C110.2 12 112 13.8 112 16V28C112 30.2 110.2 32 108 32H94V12ZM106 18H100V26H106C107.1 26 108 25.1 108 24V20C108 18.9 107.1 18 106 18Z" fill="#4F46E5"/>
</svg>